<?xml version="1.0" encoding="UTF-8"?>
<svg version="1.1" xmlns="http://www.w3.org/2000/svg" width="735" height="804">
<path d="M0 0 C242.55 0 485.1 0 735 0 C735 265.32 735 530.64 735 804 C492.45 804 249.9 804 0 804 C0 538.68 0 273.36 0 0 Z " fill="none" transform="translate(0,0)"/>
<path d="M0 0 C4.30283927 0.27319614 6.64526109 3.3079711 9.4375 6.25 C9.90220703 6.72824219 10.36691406 7.20648438 10.84570312 7.69921875 C12.2346079 9.12880275 13.61733414 10.56438098 15 12 C16.28003906 13.26070312 16.28003906 13.26070312 17.5859375 14.546875 C19.93842169 16.93742528 22.08054165 19.39177303 24.1875 22 C24.86167969 22.825 25.53585938 23.65 26.23046875 24.5 C28 27 28 27 29.05078125 29.75 C29.36402344 30.4925 29.67726562 31.235 30 32 C30.99 32.33 31.98 32.66 33 33 C34.76171875 35.1171875 34.76171875 35.1171875 36.6875 37.875 C37.38488281 38.86242187 38.08226562 39.84984375 38.80078125 40.8671875 C39.52652344 41.90101562 40.25226563 42.93484375 41 44 C42.45479633 46.00257428 43.91297451 48.00269742 45.375 50 C47.30215334 52.64119821 49.18611567 55.27917351 51 58 C54.63609425 57.74901296 55.82423286 57.18439728 58.38671875 54.49609375 C59.14597656 53.48675781 59.90523437 52.47742188 60.6875 51.4375 C62.08488295 49.59389392 63.51358241 47.77260408 65 46 C65.66 46 66.32 46 67 46 C67.22816406 45.43796875 67.45632813 44.8759375 67.69140625 44.296875 C72.52162715 35.81875593 83.13679615 29.39511652 91 24 C91.5779834 23.60280762 92.1559668 23.20561523 92.75146484 22.79638672 C97.12736822 19.80113445 101.54612895 16.87786765 106 14 C106.56992676 13.62858887 107.13985352 13.25717773 107.72705078 12.87451172 C109.3059373 11.85567954 110.90263376 10.86460737 112.5 9.875 C113.3971875 9.31554687 114.294375 8.75609375 115.21875 8.1796875 C118.62381871 6.73540274 121.33417929 6.91874062 125 7 C125.0093457 8.20720703 125.01869141 9.41441406 125.02832031 10.65820312 C125.08736226 41.8084218 125.08736226 41.8084218 129.48388672 72.56298828 C130.26191464 76.23672276 130.84496391 79.94280862 131.43969727 83.65014648 C131.91604388 86.24953668 131.91604388 86.24953668 134 89 C137.06556598 89.73343428 137.06556598 89.73343428 140 90 C140 89.34 140 88.68 140 88 C141.09489746 87.64301025 141.09489746 87.64301025 142.21191406 87.27880859 C149.45888534 84.89289336 156.61639648 82.32925335 163.75 79.625 C164.78624512 79.23578369 165.82249023 78.84656738 166.89013672 78.44555664 C171.57093308 76.68581237 176.24458524 74.91192518 180.8984375 73.08203125 C181.62192383 72.80085449 182.34541016 72.51967773 183.09082031 72.22998047 C184.98277856 71.49290696 186.8704821 70.74493775 188.7578125 69.99609375 C192.03094071 68.99049412 194.59948817 68.79844991 198 69 C198.875 71 198.875 71 199 74 C197.63782112 76.17689979 196.10940731 78.08081235 194.4453125 80.03515625 C192.88796831 81.88996771 192.88796831 81.88996771 192.4921875 84.05859375 C191.87908861 86.47692827 190.78403492 87.3013471 189 89 C188.00988786 90.73013525 188.00988786 90.73013525 187.1875 92.625 C185.73991443 95.64034806 184.14646816 98.37023866 182.25 101.125 C179.31571718 105.41978989 176.73666782 109.86957813 174.18823242 114.40234375 C172.34887528 117.66451709 170.47233204 120.89556409 168.5234375 124.09375 C167.90819214 125.10381104 167.90819214 125.10381104 167.28051758 126.13427734 C166.48520326 127.43413562 165.68573743 128.73146545 164.8815918 130.02587891 C163.08869641 132.96014324 161.53742984 135.57068578 161 139 C161.77601563 139.03738281 162.55203125 139.07476562 163.3515625 139.11328125 C169.23262368 139.47119786 174.82267121 140.08614911 180.5625 141.4375 C186.45197585 142.80269765 192.23002795 143.48111352 198.25 144 C204.43733506 144.53888203 210.11754041 145.26302931 216.01171875 147.3359375 C218.97749364 148.32647135 221.89880441 148.66291352 225 149 C225.77734375 151.1953125 225.77734375 151.1953125 226 154 C224.19140625 156.4296875 224.19140625 156.4296875 221.5625 158.875 C220.63050781 159.7515625 219.69851563 160.628125 218.73828125 161.53125 C217.83464844 162.3459375 216.93101562 163.160625 216 164 C215.35417969 164.5878125 214.70835937 165.175625 214.04296875 165.78125 C211.53732403 168.00848975 208.97948 170.17155848 206.41992188 172.33642578 C197.43046877 179.94732867 188.69751653 187.4910342 181.2265625 196.65234375 C180 198 180 198 178 199 C178 199.99 178 200.98 178 202 C178.88300781 202.30292969 179.76601563 202.60585938 180.67578125 202.91796875 C188.31964148 205.58634101 195.66961911 208.54614673 203 212 C208.65080791 214.51147018 214.40821606 216.67438131 220.20703125 218.81640625 C223 220 223 220 225 222 C226.64991582 222.70710678 228.31562256 223.37943989 230 224 C229.47312909 228.54330716 229.47312909 228.54330716 227.42578125 230.51953125 C226.72839844 230.94621094 226.03101563 231.37289062 225.3125 231.8125 C224.4978125 232.31523437 223.683125 232.81796875 222.84375 233.3359375 C221.9053125 233.88507813 220.966875 234.43421875 220 235 C218.9378125 235.63164062 217.875625 236.26328125 216.78125 236.9140625 C210.78525305 240.43548027 204.68797573 243.76594467 198.5 246.9375 C197.3965625 247.50339844 196.293125 248.06929687 195.15625 248.65234375 C192.0527893 249.97746002 189.33872786 250.60277184 186 251 C186 251.66 186 252.32 186 253 C185.02160156 253.24234375 184.04320312 253.4846875 183.03515625 253.734375 C176.33040038 255.43537738 169.94525657 257.13611103 163.734375 260.265625 C162 261 162 261 159 261 C160.84010915 268.59045022 168.51683332 272.81608634 174.76123047 276.65722656 C179.55980868 279.53532691 184.42434016 282.29912305 189.28515625 285.0703125 C190.49751953 285.76640625 190.49751953 285.76640625 191.734375 286.4765625 C192.45850586 286.88986816 193.18263672 287.30317383 193.92871094 287.72900391 C198.21128393 290.35690054 198.21128393 290.35690054 200 292 C200 293.32 200 294.64 200 296 C188.34418359 302.99630526 176.88534362 308.26481446 163.89086914 312.2890625 C161.71765641 313.02472571 161.71765641 313.02472571 159 315 C159.60533777 321.7966405 161.43117761 327.41513347 163.91601562 333.73242188 C165.63189269 338.29839984 166.49422408 342.03899122 166 347 C163.57245823 349.42754177 162.51617909 349.40198278 159.16796875 349.81640625 C158.20439453 349.94080078 157.24082031 350.06519531 156.24804688 350.19335938 C154.73307617 350.37608398 154.73307617 350.37608398 153.1875 350.5625 C151.20165769 350.81249306 149.21597445 351.06375363 147.23046875 351.31640625 C145.90631958 351.47798218 145.90631958 351.47798218 144.55541992 351.64282227 C142.01091038 351.99847503 139.51367031 352.47105893 137 353 C138.2578635 361.08626534 143.96437453 367.15312316 149.75390625 372.671875 C151 374 151 374 151.5 376.5 C151 379 151 379 148.828125 380.52734375 C146.00085255 381.99955606 143.27807182 383.07316966 140.25 384.0625 C139.20199219 384.40539062 138.15398437 384.74828125 137.07421875 385.1015625 C134.39968876 385.88319134 131.80165079 386.45115162 129.0625 386.9375 C124.82275477 387.77469607 122.8411624 389.72835844 120 393 C119.34 393 118.68 393 118 393 C117.6596875 394.051875 117.6596875 394.051875 117.3125 395.125 C113.55202742 403.36222566 105.21081976 410.37555864 97 414 C94 415 94 415 92 415 C92 415.66 92 416.32 92 417 C89.36 417.99 86.72 418.98 84 420 C83.9189794 422.10353495 83.86080093 424.20795952 83.8125 426.3125 C83.77769531 427.48425781 83.74289062 428.65601563 83.70703125 429.86328125 C83.74970602 432.92591272 83.74970602 432.92591272 85.19921875 434.859375 C87.48806864 436.30914543 89.31507236 436.59017651 92 436.9375 C95.9519315 437.56257675 99.45915902 438.42540298 103.1875 439.875 C108.34508348 441.86151575 113.57948473 443.21085075 118.94262695 444.49511719 C124.38767543 445.81066468 129.69953087 447.42852719 135.03515625 449.13671875 C137.79730603 449.94098107 140.47649771 450.47562444 143.3125 450.9375 C148.32246373 451.92160002 152.36069032 453.29555726 156 457 C160.3765005 464.27082617 162.09048952 472.74423387 163.91015625 480.9453125 C164.65713946 484.02494661 165.71005744 486.84957539 166.9296875 489.7734375 C169.18226166 495.23065646 170.64881685 500.776679 172.0625 506.5 C173.67147981 512.91031215 175.35038034 519.2677959 177.28344727 525.58837891 C178.44833186 529.5089002 179.4321097 533.47372927 180.4375 537.4375 C182.03262299 543.64075607 183.85338375 549.60980715 186.1640625 555.58984375 C187.2720758 558.78444285 187.88207136 561.98566407 188.41015625 565.3203125 C188.92329376 567.65151998 189.58423458 569.74891201 190.37109375 571.99609375 C192.37532494 577.86983214 193.66170278 583.88379619 195 589.9375 C197.50508247 602.78557637 197.50508247 602.78557637 202 615 C204.26979665 615.10794277 206.54105196 615.18556176 208.8125 615.25 C210.70935547 615.31960938 210.70935547 615.31960938 212.64453125 615.390625 C215.97127856 615.31440309 215.97127856 615.31440309 217.8671875 613.4375 C219.3567874 610.23229193 219.80038226 607.24772935 220.3125 603.75 C222.75762409 589.20400669 228.87305652 576.62999126 235.98974609 563.82373047 C236.8692734 562.23599026 237.7275511 560.63651534 238.58203125 559.03515625 C242.11726952 552.44530123 242.11726952 552.44530123 245 550 C249.49536778 548.7032593 251.32539434 548.63860411 255.5 550.875 C256.36818359 551.44154297 256.36818359 551.44154297 257.25390625 552.01953125 C259.99762163 553.56018575 262.90589208 553.62002183 266 554 C267.9358999 554.72081379 269.87102569 555.44393516 271.79858398 556.18676758 C291.21713596 563.36023953 311.53893263 564.18069488 332 565 C332 564.34 332 563.68 332 563 C331.30777344 563.02320313 330.61554688 563.04640625 329.90234375 563.0703125 C322.74911103 563.20225619 315.92568558 562.60314349 308.8515625 561.55859375 C306.33165706 561.19313079 303.80499453 560.87097949 301.2734375 560.59765625 C288.22839448 559.15583571 276.51894237 555.28486712 264.53515625 550.04296875 C261.86935289 548.87073919 261.86935289 548.87073919 258.375 548.125 C253.23889533 546.41296511 249.32482777 543.19491782 245 540 C243.35734103 538.84962054 241.71152747 537.70373171 240.0625 536.5625 C239.23878906 535.97855469 238.41507812 535.39460937 237.56640625 534.79296875 C235.82507486 533.57642216 234.06075768 532.39225497 232.27734375 531.23828125 C225.05771914 526.39473562 220.185519 520.66477428 215.21289062 513.67578125 C214.01667541 512.02303946 212.77814041 510.41499988 211.515625 508.8125 C207.04781959 503.08903687 203.56467068 497.77965118 201 491 C200.1330962 488.83008128 199.25775623 486.66351817 198.375 484.5 C197.97023438 483.4790625 197.56546875 482.458125 197.1484375 481.40625 C196.23693928 478.86239654 196.23693928 478.86239654 194 478 C194.37253906 479.02480469 194.74507813 480.04960938 195.12890625 481.10546875 C195.60741019 482.46592113 196.08523938 483.82661096 196.5625 485.1875 C196.80935547 485.86103516 197.05621094 486.53457031 197.31054688 487.22851562 C198.68624467 491.2006008 199.31172566 493.95485799 198 498 C190.81060292 498.83597641 184.24693533 496.49282374 178 493 C175.40007565 490.24060073 173.69722128 487.36920508 172 484 C171.34 483.01 170.68 482.02 170 481 C169.875 477.8125 169.875 477.8125 170 475 C169.34 475 168.68 475 168 475 C167.49668279 467.52014703 167.83243871 461.41884842 172 455 C174.625 452.625 174.625 452.625 177 451 C179.36471194 447.4529321 179.4551013 446.1818753 179 442 C177.87648575 439.61894823 176.75582278 437.52815934 175.375 435.3125 C174.6411067 434.08252038 173.9080436 432.85204505 173.17578125 431.62109375 C172.62591553 430.71012939 172.62591553 430.71012939 172.06494141 429.78076172 C170.5074104 427.17630707 169.02828582 424.5319597 167.5625 421.875 C167.08941406 421.02679688 166.61632812 420.17859375 166.12890625 419.3046875 C163.68316993 414.3116618 163.81687874 409.51403561 163.8125 404.0625 C163.80025391 403.26392578 163.78800781 402.46535156 163.77539062 401.64257812 C163.76451958 397.26879438 164.03756411 393.99623308 166 390 C166.47147047 388.65035101 166.92998588 387.29610194 167.375 385.9375 C167.62636719 385.174375 167.87773437 384.41125 168.13671875 383.625 C168.42160156 382.75875 168.70648438 381.8925 169 381 C169.72837776 378.81223719 170.45755959 376.62474193 171.1875 374.4375 C171.53167969 373.40496094 171.87585938 372.37242187 172.23046875 371.30859375 C172.48441406 370.54675781 172.73835938 369.78492188 173 369 C173.66 369 174.32 369 175 369 C174.98316162 368.24082275 174.96632324 367.48164551 174.94897461 366.69946289 C174.71218888 350.31413839 175.16967764 337.45761239 185 324 C185.42587402 323.40171387 185.85174805 322.80342773 186.29052734 322.18701172 C189.05818112 318.33924658 191.99645127 314.66543259 195 311 C196.1914063 309.44047651 197.3793001 307.87825876 198.5625 306.3125 C201.78768946 302.16908013 205.26545336 298.28693676 208.80859375 294.4140625 C210.77396986 292.24899577 212.67225413 290.04290401 214.5625 287.8125 C217.45193316 284.49795484 220.55314799 281.61634335 223.91015625 278.78125 C225.34061144 277.56202091 226.74349808 276.30990234 228.12109375 275.03125 C234.94848879 268.70282679 242.26512421 263.34978246 251 260 C252.93197653 259.06431725 254.8352222 258.08305464 256.7421875 257.09765625 C279.37150897 246.09620412 303.4056283 243.32717698 328.25 243.6875 C330.34894936 243.69903447 332.44790916 243.70880672 334.546875 243.71679688 C336.53646965 243.73018235 338.52605477 243.7450944 340.515625 243.76171875 C341.44248108 243.76910568 342.36933716 243.77649261 343.32427979 243.78410339 C344.1740741 243.79693863 345.02386841 243.80977386 345.89941406 243.82299805 C347.01899506 243.83776436 347.01899506 243.83776436 348.16119385 243.85282898 C350 244 350 244 352 245 C353.70363822 245.22622081 355.41328701 245.40888473 357.125 245.5625 C358.03507813 245.64628906 358.94515625 245.73007812 359.8828125 245.81640625 C360.58148437 245.87699219 361.28015625 245.93757812 362 246 C362 246.66 362 247.32 362 248 C363.258125 248.2475 364.51625 248.495 365.8125 248.75 C374.48354232 250.70710046 381.95773828 253.77216851 389.4765625 258.4921875 C394.76877844 261.65440941 400.47669591 263.98573071 406.1875 266.28125 C407.239375 266.7040625 408.29125 267.126875 409.375 267.5625 C410.80972656 268.12130859 410.80972656 268.12130859 412.2734375 268.69140625 C416.66564094 270.7994122 419.98794921 273.7502335 423.125 277.4375 C423.71925781 278.13488281 424.31351563 278.83226562 424.92578125 279.55078125 C425.61027344 280.35902344 426.29476562 281.16726563 427 282 C427.83917969 282.96292969 428.67835938 283.92585938 429.54296875 284.91796875 C440.12109775 297.11346189 448.8795202 310.06731584 457 324 C457.54785156 324.89847656 458.09570312 325.79695313 458.66015625 326.72265625 C460.41360429 329.7030067 461.67845964 332.80627745 463 336 C463.53625 337.175625 464.0725 338.35125 464.625 339.5625 C465.90766303 342.76915757 466.58355851 345.58517981 467 349 C467.66 349 468.32 349 469 349 C469.96115475 351.88346426 470.16331183 353.86920817 470.24609375 356.875 C470.29358765 358.33812622 470.29358765 358.33812622 470.34204102 359.83081055 C470.37354248 360.87664307 470.40504395 361.92247559 470.4375 363 C470.70044098 370.61279445 471.13847079 378.12652352 472.0625 385.6875 C473.67944044 399.42340167 474.18967477 413.4727046 471 427 C470.41078367 429.76576727 469.85957898 432.53814024 469.3125 435.3125 C469.16901123 435.98321533 469.02552246 436.65393066 468.87768555 437.3449707 C467.86012448 442.45574293 467.53944468 446.66809065 470.375 451.1953125 C470.91125 451.83210938 471.4475 452.46890625 472 453.125 C477.33834971 459.51562057 476.53643888 466.97129817 476 475 C475.26725516 477.93949966 474.31716862 480.2558987 473 483 C472.34 483 471.68 483 471 483 C470.59201172 483.90298828 470.59201172 483.90298828 470.17578125 484.82421875 C467.0390997 490.62864275 461.30439108 493.42691087 455.625 496.25 C445.46643192 501.56174555 439.85781811 510.14726411 433.17578125 519.18359375 C426.72026471 527.53983688 418.42488551 534.25224391 409.96484375 540.50390625 C406.89624511 542.76594018 406.89624511 542.76594018 405.56640625 546.203125 C406.18039124 550.16360475 408.32103697 552.8342524 410.625 556 C415.32134731 562.73239832 418.85610769 569.39447834 422 577 C422.33902344 577.74894531 422.67804687 578.49789062 423.02734375 579.26953125 C425.04424889 583.98183956 426.47647258 588.97251741 425 594 C423.18285053 595.94004847 421.31858409 597.24612831 419.078125 598.671875 C416.79660202 600.01907209 416.79660202 600.01907209 414.5625 602.5 C411.71963509 605.27352674 408.72052069 607.24625736 405.3984375 609.3984375 C400.0273935 612.98496525 395.05607441 616.99674861 390.375 621.4375 C387.72152508 623.74620788 387.02744083 623.99627921 383.3125 624.5 C380 624 380 624 378.21875 622.99609375 C372.85960572 620.59013989 365.21383092 620.92325733 359.703125 622.76953125 C354.5748392 625.98038276 351.75574812 631.35039271 350 637 C349.12472609 643.70209737 349.29592142 648.2764105 353 654 C353 654.66 353 655.32 353 656 C353.598125 656.268125 354.19625 656.53625 354.8125 656.8125 C358.60550459 658.87155963 358.60550459 658.87155963 360 661 C359.89747946 666.43358839 358.34283867 669.77229227 355 674 C352 676 352 676 349.3125 675.625 C348.549375 675.41875 347.78625 675.2125 347 675 C347 674.34 347 673.68 347 673 C346.34 673 345.68 673 345 673 C344.99413376 672.45320587 344.98826752 671.90641174 344.98222351 671.3430481 C344.91841896 665.66536481 344.83403425 659.98825521 344.73754883 654.31103516 C344.7042404 652.19066926 344.6762271 650.07021343 344.65356445 647.94970703 C344.62012697 644.90618465 344.56781747 641.86349088 344.51171875 638.8203125 C344.50213387 637.39212692 344.50213387 637.39212692 344.49235535 635.93508911 C344.47256119 635.05432709 344.45276703 634.17356506 344.43237305 633.26611328 C344.42126999 632.48889923 344.41016693 631.71168518 344.39872742 630.91091919 C344.14796011 628.59221345 344.14796011 628.59221345 341 627 C338.58423718 626.68979129 338.58423718 626.68979129 335.85766602 626.7253418 C334.80970352 626.71580978 333.76174103 626.70627777 332.68202209 626.69645691 C331.55074387 626.69736832 330.41946564 626.69827972 329.25390625 626.69921875 C328.09124741 626.69493362 326.92858856 626.6906485 325.73069763 626.68623352 C323.27026013 626.68048684 320.80980563 626.67999243 318.34936523 626.68432617 C314.58092307 626.68748456 310.81326684 626.6640355 307.04492188 626.63867188 C304.65625099 626.63639881 302.26757799 626.63569542 299.87890625 626.63671875 C298.74965225 626.627509 297.62039825 626.61829926 296.45692444 626.60881042 C295.40580978 626.61503922 294.35469513 626.62126801 293.27172852 626.62768555 C292.34812027 626.62705612 291.42451202 626.6264267 290.47291565 626.6257782 C287.50485408 627.07492953 286.15249722 627.93293934 284 630 C282.75526468 633.73420597 282.76790215 637.27365238 282.68359375 641.16796875 C282.6524221 642.36018791 282.6524221 642.36018791 282.62062073 643.57649231 C282.55527913 646.11340763 282.49631192 648.65042573 282.4375 651.1875 C282.39430014 652.90821372 282.35068537 654.62891708 282.30664062 656.34960938 C282.19961352 660.56630113 282.09830276 664.7830962 282 669 C277.26183994 671.51977499 272.35911603 672.21613581 267.1171875 673.21875 C263.92146404 673.73587591 263.92146404 673.73587591 262 676 C255.67720795 677.29036573 248.93949316 678.31977244 242.9375 675.625 C239.51015529 672.56226643 236.81328495 669.22387533 234.01171875 665.58984375 C231.67149837 662.57709401 229.18681535 659.72763731 226.65625 656.875 C224.58350806 654.52849969 222.56655299 652.13704395 220.5546875 649.73828125 C218.46069093 647.39700368 216.22900085 645.2134352 214 643 C212.77751995 641.75631401 211.55625275 640.51143517 210.3359375 639.265625 C209.01571577 637.9269938 207.6954015 636.58845387 206.375 635.25 C205.70726562 634.56550781 205.03953125 633.88101563 204.3515625 633.17578125 C203.70703125 632.52480469 203.0625 631.87382813 202.3984375 631.203125 C201.81755371 630.61176758 201.23666992 630.02041016 200.63818359 629.41113281 C197.80001917 626.96633544 195.08341483 626.8718422 191.50024414 626.85473633 C190.59242691 626.84835648 189.68460968 626.84197662 188.74928284 626.83540344 C187.28204018 626.83373421 187.28204018 626.83373421 185.78515625 626.83203125 C184.77786972 626.82870285 183.77058319 626.82537445 182.73277283 626.82194519 C180.6018825 626.81688134 178.47098423 626.8145367 176.34008789 626.81469727 C173.07880607 626.81251093 169.81786257 626.79434979 166.55664062 626.77539062 C164.48698032 626.77245658 162.41731842 626.77047186 160.34765625 626.76953125 C159.37151871 626.76234573 158.39538116 626.75516022 157.3896637 626.74775696 C156.47869431 626.75083359 155.56772491 626.75391022 154.62915039 626.75708008 C153.82989639 626.75565506 153.0306424 626.75423004 152.20716858 626.75276184 C149.75627105 627.02730154 148.124247 627.77709569 146 629 C145.99413376 629.60499329 145.98826752 630.20998657 145.98222351 630.83331299 C145.91831152 637.12762834 145.83389751 643.42143135 145.73754883 649.71533203 C145.70428532 652.06454719 145.67625788 654.41384255 145.65356445 656.76318359 C145.62004532 660.1393452 145.56772951 663.51477093 145.51171875 666.890625 C145.50213387 668.46738007 145.50213387 668.46738007 145.49235535 670.07598877 C145.47256119 671.05670349 145.45276703 672.03741821 145.43237305 673.04785156 C145.42126999 673.90944885 145.41016693 674.77104614 145.39872742 675.65875244 C144.91084402 678.52350609 144.00216233 679.91435046 142 682 C139.0625 682.5625 139.0625 682.5625 136 682 C133.03657877 678.79367539 130.86416528 675.21650019 128.65209961 671.48022461 C120.11907899 657.12931334 109.44323738 645.01965336 94 638 C94 637.34 94 636.68 94 636 C93.0925 635.938125 92.185 635.87625 91.25 635.8125 C87.61187786 635.31372519 84.59965904 634.04542197 81.25 632.5625 C76.48258328 630.50330639 72.12883987 629.22691941 67.00390625 628.46875 C64.83150124 628.12975312 62.67242556 627.70133309 60.52734375 627.21875 C44.01738758 623.59092647 26.60271228 623.85398121 10 627 C9.67 627.33 9.34 627.66 9 628 C7.13038213 628.32438165 5.25384941 628.60925703 3.375 628.875 C-0.36272899 629.45613101 -3.0960746 630.0438235 -6.5625 631.625 C-11.59094045 633.63637618 -15.67522242 634.17733776 -21 633 C-25.4441287 630.90806759 -29.42687136 628.04108483 -33.38720703 625.15966797 C-34.94166136 624.04194801 -36.53880848 622.98434808 -38.13671875 621.9296875 C-40.72084243 620.1881362 -43.10124272 618.35988719 -45.5 616.375 C-49.58885169 613.05203594 -53.80383484 610.00592779 -58.125 607 C-63.00052539 603.59391829 -67.23775536 600.03257085 -71.32421875 595.68359375 C-73.65917945 593.33774746 -76.20285701 591.7563456 -79 590 C-80.875 588.375 -80.875 588.375 -82 587 C-82 586.34 -82 585.68 -82 585 C-82.721875 584.79375 -83.44375 584.5875 -84.1875 584.375 C-87.81746346 582.6003512 -89.5018578 580.13869148 -92 577 C-93.1446875 576.319375 -93.1446875 576.319375 -94.3125 575.625 C-96 574 -96 574 -96.4375 570.1875 C-96.24134179 566.18441942 -94.84951909 563.55676748 -93 560 C-92.66008322 558.53536881 -92.36815821 557.05924592 -92.109375 555.578125 C-90.95249833 549.4931968 -89.31417292 543.58079071 -87.625 537.625 C-87.33367187 536.57828125 -87.04234375 535.5315625 -86.7421875 534.453125 C-84.97441769 528.17289016 -83.01682229 521.98689145 -80.92382812 515.80810547 C-79.37325852 511.09493116 -78.11560598 506.3102417 -76.84570312 501.515625 C-75.67414434 497.1804759 -74.29385773 493.01935686 -72.67602539 488.83105469 C-71.75773133 486.34380101 -71.11178618 483.82824175 -70.5 481.25 C-70.24734375 480.2290625 -69.9946875 479.208125 -69.734375 478.15625 C-69.24684477 476.06090731 -68.79844609 473.95605411 -68.390625 471.84375 C-66.93161936 464.79782034 -65.01899181 459.3306043 -59 455 C-56.27838841 453.92052465 -53.6501448 453.24194497 -50.7890625 452.625 C-48.2049026 452.04591655 -45.9941068 451.28107002 -43.5625 450.25 C-31.95601077 445.42941342 -19.92794579 441.50155503 -7.89453125 437.90234375 C-4.02379837 436.69567803 -0.23763202 435.29507536 3.5546875 433.86328125 C5.70145808 433.10539579 7.78280158 432.55881847 10 432.0625 C13.12036221 431.23673287 13.12036221 431.23673287 14.9375 428.75 C16.15093563 425.60934308 16.29694266 423.34060496 16 420 C15.15644337 417.76700134 15.15644337 417.76700134 12.671875 417.03515625 C11.22554688 416.55369141 11.22554688 416.55369141 9.75 416.0625 C5.79891429 414.74369166 2.5557934 413.14963874 -1 411 C-2.11117187 410.53851563 -3.22234375 410.07703125 -4.3671875 409.6015625 C-13.037921 405.77898106 -21.96325771 400.13935188 -25.9296875 391.28515625 C-27.19535094 388.58291862 -28.80455254 386.34640291 -30.5625 383.9375 C-35.6596795 376.77717642 -38.88024724 369.18476311 -42 361 C-42.31839844 360.16855469 -42.63679688 359.33710938 -42.96484375 358.48046875 C-47.83597571 345.43209518 -51.51321436 332.44465141 -54.203125 318.7890625 C-54.78810159 315.21249645 -54.78810159 315.21249645 -56 313 C-56.43903267 309.70909965 -56.81442838 306.41864529 -57.16210938 303.1171875 C-57.65217988 298.83006667 -58.57007788 295.0939679 -60 291 C-60.125 287.625 -60.125 287.625 -60 285 C-60.66 285 -61.32 285 -62 285 C-61.50582007 293.79120084 -60.63522194 302.3479675 -59 311 C-58.86851562 311.75925781 -58.73703125 312.51851563 -58.6015625 313.30078125 C-56.16705933 326.59868064 -52.25328547 339.66411105 -48.015625 352.484375 C-46.98867494 356.03920213 -46.43224516 359.33531279 -46 363 C-45.34 363 -44.68 363 -44 363 C-43.81566406 363.53625 -43.63132812 364.0725 -43.44140625 364.625 C-41.2641804 370.50834807 -38.51084168 375.92231705 -35.4375 381.375 C-34.85560913 382.40947266 -34.85560913 382.40947266 -34.26196289 383.46484375 C-32.69874699 386.19988617 -31.16562842 388.78468306 -29.2421875 391.28515625 C-27.37240521 393.86639659 -27.670907 395.90652578 -28 399 C-31.19137792 403.78706688 -36.69154059 405.2881269 -42.21484375 406.4765625 C-43.80321866 406.70393723 -45.40146558 406.86099701 -47 407 C-48.89378985 403.78676641 -49.2494985 401.39187349 -49.2734375 397.68359375 C-49.2940625 396.67232422 -49.3146875 395.66105469 -49.3359375 394.61914062 C-49.36202612 392.49422258 -49.38022719 390.36919337 -49.390625 388.24414062 C-49.41382813 387.23416016 -49.43703125 386.22417969 -49.4609375 385.18359375 C-49.46915527 384.26118896 -49.47737305 383.33878418 -49.48583984 382.38842773 C-49.80401636 379.88176997 -49.80401636 379.88176997 -51.75561523 378.19873047 C-54.22982602 376.87724945 -55.66453069 376.62579146 -58.44921875 376.63671875 C-59.29806641 376.63736328 -60.14691406 376.63800781 -61.02148438 376.63867188 C-61.90126953 376.65478516 -62.78105469 376.67089844 -63.6875 376.6875 C-64.54794922 376.68427734 -65.40839844 376.68105469 -66.29492188 376.67773438 C-71.38905942 376.71996159 -76.02378335 377.26453704 -80.9543457 378.55517578 C-84.35532486 379.2947132 -87.53204046 379.18578355 -91 379 C-92.53209716 377.46790284 -92.20614547 376.06809947 -92.25 373.9375 C-92.27578125 373.20402344 -92.3015625 372.47054688 -92.328125 371.71484375 C-92.0273005 369.22587914 -91.49794431 367.53317357 -90.58203125 365.23046875 C-88.90764842 361.00188381 -88.11868912 356.85714379 -87.4375 352.375 C-86.81682574 348.38849787 -86.21024944 344.61944459 -84.91015625 340.7890625 C-84.00201114 338.00616288 -83.82924927 335.90276235 -84 333 C-90.44739921 330.15324258 -96.75561217 327.6858919 -103.5859375 325.953125 C-108.46632283 324.59063756 -113.25768997 322.98131909 -118.0625 321.375 C-119.00407959 321.06127441 -119.94565918 320.74754883 -120.91577148 320.42431641 C-127.72798197 318.13600902 -127.72798197 318.13600902 -130 317 C-130.47513767 312.99102588 -130.30478938 311.41516347 -127.875 308.10546875 C-126.931323 307.11858645 -125.97209172 306.14640597 -125 305.1875 C-123.99005523 304.14533513 -122.98094803 303.10235797 -121.97265625 302.05859375 C-121.47008301 301.5466748 -120.96750977 301.03475586 -120.44970703 300.50732422 C-117.6891523 297.63705394 -115.14186588 294.57590927 -112.55859375 291.546875 C-111 290 -111 290 -109 290 C-108.77183594 289.42636719 -108.54367188 288.85273438 -108.30859375 288.26171875 C-106.65062498 285.39615481 -104.66411429 283.84871207 -102.0625 281.8125 C-101.18722656 281.11769531 -100.31195313 280.42289062 -99.41015625 279.70703125 C-97 278 -97 278 -94 277 C-95.41486861 267.70229196 -102.87786293 261.53432622 -110 256 C-110.56460938 255.50757813 -111.12921875 255.01515625 -111.7109375 254.5078125 C-117.99845481 249.28297417 -125.42201441 246.76383241 -133 244 C-133.84046875 243.67902344 -134.6809375 243.35804688 -135.546875 243.02734375 C-140.7466324 241.13911068 -145.91333402 240.30532291 -151.3984375 239.625 C-154.24058969 238.94220068 -155.32427566 238.37109294 -157 236 C-157 235.01 -157 234.02 -157 233 C-154.9091516 231.27670708 -152.86213224 229.76052269 -150.625 228.25 C-149.66207031 227.58194336 -149.66207031 227.58194336 -148.6796875 226.90039062 C-146.79189794 225.59215246 -144.89623474 224.29595048 -143 223 C-141.33172604 221.83563284 -139.66483352 220.66928107 -138 219.5 C-137.21238281 218.95085937 -136.42476562 218.40171875 -135.61328125 217.8359375 C-132.45712729 215.61860961 -129.32246318 213.37213682 -126.1875 211.125 C-120.41595305 206.98880373 -114.59462285 202.93096906 -108.7421875 198.91015625 C-107.83726563 198.27980469 -106.93234375 197.64945313 -106 197 C-105.21882813 196.54496094 -104.43765625 196.08992187 -103.6328125 195.62109375 C-101.73428514 194.04924024 -101.73428514 194.04924024 -101.5234375 191.2421875 C-102.09889641 187.32718015 -103.59454964 184.44680765 -105.625 181.125 C-105.98891846 180.51076172 -106.35283691 179.89652344 -106.7277832 179.26367188 C-109.52702456 174.60789744 -112.55136803 170.20178148 -116 166 C-116.804375 165.01 -117.60875 164.02 -118.4375 163 C-119.283125 162.01 -120.12875 161.02 -121 160 C-121.45375 159.4534375 -121.9075 158.906875 -122.375 158.34375 C-127.47734229 152.3229861 -133.09422496 146.82006043 -138.6953125 141.26953125 C-139.25508789 140.71088379 -139.81486328 140.15223633 -140.39160156 139.57666016 C-141.85096754 138.14609162 -143.35682093 136.76333351 -144.8671875 135.38671875 C-147.210085 132.76490488 -147.47218022 131.38373948 -148 128 C-142.98006985 127.51102486 -137.95924494 127.03241386 -132.9375 126.5625 C-132.1885849 126.4924173 -131.4396698 126.42233459 -130.6680603 126.35012817 C-120.28395321 125.38760919 -109.9376194 124.68610907 -99.51196289 124.34619141 C-93.28044334 124.12186809 -87.32756591 123.42359317 -81.171875 122.41015625 C-75.78938287 121.71414434 -70.41574007 121.83806757 -65 122 C-64.60501256 114.38656477 -65.68860012 107.72370875 -67.625 100.375 C-67.89570313 99.32610596 -68.16640625 98.27721191 -68.4453125 97.1965332 C-73.38013882 77.15399576 -73.38013882 77.15399576 -84 60 C-84.125 57.5 -84.125 57.5 -84 55 C-83 54 -83 54 -79.10546875 53.73828125 C-73.47288708 53.8061705 -68.60404772 55.3770626 -63.3125 57.1875 C-62.3544043 57.50485107 -61.39630859 57.82220215 -60.40917969 58.14916992 C-57.6009338 59.08485857 -54.79996678 60.039865 -52 61 C-51.22640137 61.26071289 -50.45280273 61.52142578 -49.65576172 61.79003906 C-38.42133956 65.57866044 -38.42133956 65.57866044 -36 68 C-34.29320333 68.72210628 -32.58518392 69.44167871 -30.8671875 70.13671875 C-29 71 -29 71 -25.875 73.1875 C-22.75810675 75.15249792 -21.55584371 75.1736018 -18 75 C-17.85304687 74.37996094 -17.70609375 73.75992188 -17.5546875 73.12109375 C-16.13867449 67.53028375 -14.35139512 62.35882947 -12.0625 57.0625 C-6.64085007 44.12374671 -4.64852704 30.23560171 -4.2734375 16.28515625 C-4.00595568 13.07155323 -3.28898313 10.92136331 -2 8 C-1.6503582 5.66905466 -1.31445513 3.33595238 -1 1 C-0.67 0.67 -0.34 0.34 0 0 Z " fill="#010101" transform="translate(208,61)"/>
<path d="M0 0 C3.9502365 0.52787125 5.46567285 2.21528152 7.9375 5.25 C16.79879467 16.99328583 18.34041138 28.72836938 17 43 C15.18806675 54.83980812 9.4190993 64.59445277 0 72 C-4.53869143 74.70747373 -9.15460114 76.90146458 -14 79 C-14.74765625 79.36222656 -15.4953125 79.72445312 -16.265625 80.09765625 C-26.01904321 84.22557931 -38.72577403 83.17017675 -48.5625 79.9375 C-54.5617192 77.48516328 -59.18720759 74.28232431 -64 70 C-64.91845703 69.32710937 -64.91845703 69.32710937 -65.85546875 68.640625 C-72.74368303 63.47066285 -78.17503304 54.71149267 -79.7890625 46.2109375 C-81.09379657 32.53539146 -81.09379657 32.53539146 -78.82080078 29.34472656 C-76.3137253 27.49316157 -74.60326604 27.63118055 -71.50390625 27.62890625 C-70.39772949 27.61448486 -69.29155273 27.60006348 -68.15185547 27.58520508 C-66.96736816 27.5777124 -65.78288086 27.57021973 -64.5625 27.5625 C-46.15929234 27.14651871 -18.69322525 25.27674337 -5 11 C-2.43960394 7.58613858 -1.23073122 4.0708802 0 0 Z " fill="#FBFBFB" transform="translate(506,434)"/>
<path d="M0 0 C0.99 0.33 1.98 0.66 3 1 C3.725855 2.71565728 4.44790636 4.43320061 5.13671875 6.1640625 C8.16314201 12.60034727 15.41462113 16.58099794 21.7734375 19.09765625 C37.82911875 24.4158479 53.86431702 25.39763041 70.62646484 25.62182617 C71.92406738 25.6447876 73.22166992 25.66774902 74.55859375 25.69140625 C76.31127563 25.70989624 76.31127563 25.70989624 78.09936523 25.72875977 C81 26 81 26 84 28 C85.90391042 39.97621074 81.74877865 51.00390428 74.875 60.5625 C66.22749922 71.20698718 53.18539686 76.71907593 39.828125 78.7890625 C26.38589666 79.79165964 12.73583754 76.37266092 2.05859375 67.97265625 C-3.22232331 62.91219493 -9.13741757 56.46202258 -10 49 C-10.66 49 -11.32 49 -12 49 C-14.40424905 44.28728871 -14.33270581 39.91460484 -14.3125 34.75 C-14.32861328 33.94175781 -14.34472656 33.13351562 -14.36132812 32.30078125 C-14.36979757 21.71398042 -10.25617628 9.96152694 -2.6875 2.375 C-1.800625 1.59125 -0.91375 0.8075 0 0 Z " fill="#FBFBFB" transform="translate(560,435)"/>
<path d="M0 0 C8.44954045 4.40969283 15.34144427 9.64852337 18.37890625 19.00390625 C19.68000363 24.36083821 19.92040885 29.72261233 20.0078125 35.2109375 C20.02553711 35.892771 20.04326172 36.57460449 20.06152344 37.27709961 C20.05511836 41.61600526 19.59227761 44.59033105 16.6953125 47.8984375 C14.35546875 48.421875 14.35546875 48.421875 11.7578125 48.2734375 C10.90316406 48.23992187 10.04851562 48.20640625 9.16796875 48.171875 C6.91347781 47.92256321 4.88800683 47.4551099 2.6953125 46.8984375 C-5.53000827 45.82556957 -13.835077 45.76952647 -22.1171875 45.7109375 C-23.09534424 45.69796631 -24.07350098 45.68499512 -25.08129883 45.67163086 C-30.87070885 45.66423824 -35.74400212 46.30265582 -41.3046875 47.8984375 C-45.1171875 48.3359375 -45.1171875 48.3359375 -48.3046875 47.8984375 C-50.1796875 45.5234375 -50.1796875 45.5234375 -51.3046875 42.8984375 C-51.6346875 42.2384375 -51.9646875 41.5784375 -52.3046875 40.8984375 C-52.84709734 32.45979216 -52.84295393 24.70246439 -49.3046875 16.8984375 C-48.9128125 15.8878125 -48.5209375 14.8771875 -48.1171875 13.8359375 C-37.43140407 -3.48240116 -18.00769495 -8.60706776 0 0 Z " fill="#F9F9F9" transform="translate(221.3046875,247.1015625)"/>
<path d="M0 0 C0.89847656 0.56203125 1.79695313 1.1240625 2.72265625 1.703125 C7.25093249 4.70025747 10.6140874 6.98656339 13 12 C13.74493835 17.12645747 13.57996262 22.41339979 11 27 C9 29 9 29 6.4375 29.3125 C3.46480688 29.04225517 1.63214381 28.57363892 -1.09765625 27.55078125 C-6.00190268 25.86945366 -10.72771488 25.28905606 -15.875 24.875 C-17.53932187 24.72949947 -19.20340056 24.58118248 -20.8671875 24.4296875 C-21.59019043 24.37022949 -22.31319336 24.31077148 -23.05810547 24.24951172 C-25 24 -25 24 -28 23 C-30.09042476 22.8842138 -32.18396682 22.82154568 -34.27734375 22.7890625 C-35.51291016 22.76070313 -36.74847656 22.73234375 -38.02148438 22.703125 C-40.62811243 22.65112245 -43.23490586 22.60682723 -45.84179688 22.5703125 C-47.69708008 22.52390625 -47.69708008 22.52390625 -49.58984375 22.4765625 C-50.72284912 22.45674316 -51.85585449 22.43692383 -53.02319336 22.41650391 C-56.30043052 21.95796486 -57.72344806 21.38140883 -60 19 C-60.40889364 16.07460655 -60.55948248 13.60462007 -60.5 10.6875 C-60.51546875 9.94048828 -60.5309375 9.19347656 -60.546875 8.42382812 C-60.50361573 2.26479008 -58.4204069 -1.07534166 -54.5 -5.8125 C-42.81233653 -15.06523358 -11.18569986 -7.0169989 0 0 Z " fill="#F8F8F8" transform="translate(322,267)"/>
<path d="M0 0 C13.27521566 4.42507189 25.04733421 37.31618738 31 49 C31.46067871 49.89726807 31.92135742 50.79453613 32.39599609 51.71899414 C34.582116 56.0186307 36.59832106 60.22558624 38.125 64.8125 C39.03678836 67.54383061 39.91955086 69.86863647 41.42578125 72.328125 C43.42874238 75.72769178 44.71927691 79.23762464 46.0625 82.9375 C46.31837891 83.62779297 46.57425781 84.31808594 46.83789062 85.02929688 C52.14172114 99.41372155 52.14172114 99.41372155 51 105 C48.32314616 110.70799716 44.35659171 114.85909024 39.5703125 118.84765625 C35.960891 121.87013535 32.43661047 124.97584127 28.9375 128.125 C28.245354 128.7233667 27.55320801 129.3217334 26.84008789 129.93823242 C23.05891639 133.14051547 23.05891639 133.14051547 21.83203125 137.6796875 C23.16668679 140.33114367 24.57922958 141.97612382 26.75 144 C27.47703125 144.68964844 28.2040625 145.37929688 28.953125 146.08984375 C29.62859375 146.72019531 30.3040625 147.35054687 31 148 C31.825 148.845625 32.65 149.69125 33.5 150.5625 C37.50022663 154.46272096 41.61490166 158.38228112 46.24609375 161.5234375 C46.82488281 162.01070312 47.40367187 162.49796875 48 163 C48 163.99 48 164.98 48 166 C43.56429663 165.56282731 41.03337122 162.513386 38 159.5625 C32.64190974 154.46660274 27.11766824 149.70021186 21.36328125 145.05859375 C18.4771286 142.54454012 17.1180033 140.93406199 16.6328125 137.09350586 C17.08850584 133.25435005 18.12248769 132.16385462 20.875 129.50390625 C21.69613281 128.69759766 22.51726562 127.89128906 23.36328125 127.06054688 C24.23339844 126.23619141 25.10351562 125.41183594 26 124.5625 C26.83917969 123.74201172 27.67835938 122.92152344 28.54296875 122.07617188 C33.03136494 117.71651263 37.61565091 113.51353924 42.40625 109.48803711 C45.0582229 107.01196866 45.96210436 105.28692412 46.4375 101.6875 C46.2435259 93.61519315 42.37518456 85.43314894 38.6875 78.375 C37 75 37 75 37 71 C36.34 71 35.68 71 35 71 C34.7525 70.195625 34.505 69.39125 34.25 68.5625 C31.02885802 59.38224535 26.47171055 50.72696591 22.13696289 42.03369141 C21.06276129 39.87552496 19.99718545 37.71323208 18.93164062 35.55078125 C18.23750715 34.15598712 17.5428629 32.76144704 16.84765625 31.3671875 C16.53603043 30.73158905 16.2244046 30.0959906 15.90333557 29.44113159 C13.65089445 24.95826511 10.97120273 21.0428604 8 17 C6.77734375 14.77734375 6.77734375 14.77734375 5.9375 12.9375 C4.71018796 10.35263056 3.39943018 8.02563962 1.75 5.6875 C0 3 0 3 0 0 Z " fill="#E2E2E2" transform="translate(305,511)"/>
<path d="M0 0 C0.66 0 1.32 0 2 0 C3.87526872 6.60094589 5.23808764 13.11715551 6 19.9375 C8.25225886 39.53307326 13.66659676 62.5199785 23.01171875 80.01953125 C24.11786551 82.23619689 24.95521411 84.48870804 25.8125 86.8125 C27.75739583 91.86610483 30.53086665 96.1180137 33.609375 100.5546875 C35 103 35 103 35 107 C34.01 107.495 34.01 107.495 33 108 C28.89977956 101.83685616 25.09640043 95.56439924 21.5625 89.0625 C21.20865234 88.4243335 20.85480469 87.78616699 20.49023438 87.12866211 C18.67311951 83.73236648 18 81.94464084 18 78 C17.34 78 16.68 78 16 78 C10.1088641 59.07022521 4.36076559 40.44580738 1.578125 20.78125 C1.12194941 17.08382361 1.12194941 17.08382361 0 14 C-0.06970052 11.60509014 -0.08448003 9.20832309 -0.0625 6.8125 C-0.05347656 5.54019531 -0.04445312 4.26789063 -0.03515625 2.95703125 C-0.02355469 1.98121094 -0.01195312 1.00539063 0 0 Z " fill="#DFDFDF" transform="translate(146,346)"/>
<path d="M0 0 C0.33 0 0.66 0 1 0 C1.33 3.63 1.66 7.26 2 11 C2.66 10.34 3.32 9.68 4 9 C4.03738281 9.66386719 4.07476563 10.32773437 4.11328125 11.01171875 C4.49526105 16.14223169 4.92177048 19.71724589 8 24 C8 24.66 8 25.32 8 26 C8.598125 26.268125 9.19625 26.53625 9.8125 26.8125 C13.60550459 28.87155963 13.60550459 28.87155963 15 31 C14.89747946 36.43358839 13.34283867 39.77229227 10 44 C7 46 7 46 4.3125 45.625 C3.549375 45.41875 2.78625 45.2125 2 45 C2 44.34 2 43.68 2 43 C1.34 43 0.68 43 0 43 C0 28.81 0 14.62 0 0 Z " fill="#151515" transform="translate(553,691)"/>
<path d="M0 0 C0.66 0 1.32 0 2 0 C4.28901382 8.05732865 5.60494489 15.93304391 6.47265625 24.23828125 C6.99593467 27.97100063 7.95409786 31.38607431 9 35 C8.625 37.4375 8.625 37.4375 8 39 C8 38.01 8 37.02 8 36 C7.34 36 6.68 36 6 36 C5.67 37.32 5.34 38.64 5 40 C4.86722656 39.15695312 4.73445312 38.31390625 4.59765625 37.4453125 C4.42105469 36.34960938 4.24445313 35.25390625 4.0625 34.125 C3.80146484 32.48917969 3.80146484 32.48917969 3.53515625 30.8203125 C3.14448841 28.06178454 3.14448841 28.06178454 2 26 C0.00672965 17.32854649 -0.2360119 8.86355802 0 0 Z " fill="#C9C9C9" transform="translate(146,346)"/>
<path d="M0 0 C2.83883248 0.15313204 3.86785596 0.86564434 5.8671875 2.8984375 C6.86105469 4.12433594 6.86105469 4.12433594 7.875 5.375 C12.24147403 10.45824866 17.06773764 14.39415395 22.47802734 18.33154297 C24.03545627 19.4898727 25.52468759 20.7387443 27 22 C27 22.99 27 23.98 27 25 C22.5641192 24.56280982 20.03368446 21.51321267 17 18.5625 C10.8830934 12.75358855 4.54056174 7.32672776 -2 2 C-1.34 1.34 -0.68 0.68 0 0 Z " fill="#DADADA" transform="translate(326,652)"/>
<path d="M0 0 C10.40798659 0.56825214 20.67275755 1.60222605 31 3 C31 3.66 31 4.32 31 5 C17.83418232 5.24972046 5.06505392 4.65530095 -8 3 C-8 2.67 -8 2.34 -8 2 C-5.36 1.67 -2.72 1.34 0 1 C0 0.67 0 0.34 0 0 Z " fill="#8A8A8A" transform="translate(509,621)"/>
<path d="M0 0 C-1.39777919 3.24965924 -3.02649463 5.07563228 -5.6875 7.375 C-7.58714745 9.10598057 -7.58714745 9.10598057 -9 11 C-9.12610897 14.35406512 -9.12610897 14.35406512 -8 17 C-9.875 17.625 -9.875 17.625 -12 18 C-14 16 -14 16 -14.421875 13.2109375 C-13.86494819 8.97210563 -12.30076099 7.56113702 -9.25 4.625 C-8.36828125 3.75101563 -7.4865625 2.87703125 -6.578125 1.9765625 C-4 0 -4 0 0 0 Z " fill="#E1E1E1" transform="translate(336,635)"/>
<path d="M0 0 C0 3 0 3 -2 6 C-3.65788785 7.34423339 -5.32576317 8.67618483 -7 10 C-9.64287496 12.51073121 -12.00190227 15.00243068 -14.25 17.875 C-17.04708579 21.32444126 -20.46822305 23.84015299 -24.01171875 26.484375 C-26.08026565 27.99114345 -26.08026565 27.99114345 -28 30 C-27.875 28.3125 -27.875 28.3125 -27 26 C-25.59141633 24.79264257 -24.17424452 23.59354268 -22.7109375 22.453125 C-20.91334559 20.9264031 -19.50306477 19.31588536 -18 17.5 C-12.58047758 11.10963342 -6.18681411 5.62905694 0 0 Z " fill="#D1D1D1" transform="translate(413,233)"/>
<path d="M0 0 C1.71123047 0.38285156 1.71123047 0.38285156 3.45703125 0.7734375 C4.35808594 1.05445313 5.25914062 1.33546875 6.1875 1.625 C6.5175 2.285 6.8475 2.945 7.1875 3.625 C-1.69762349 3.97521655 -9.37012426 3.51952883 -17.8125 0.625 C-17.8125 0.295 -17.8125 -0.035 -17.8125 -0.375 C-11.56924936 -1.84400015 -6.22582066 -1.43727517 0 0 Z " fill="#C7C7C7" transform="translate(502.8125,619.375)"/>
<path d="M0 0 C3 1 3 1 4.60546875 4.08984375 C5.1440167 5.36773161 5.67094094 6.65056643 6.1875 7.9375 C6.46013672 8.58396484 6.73277344 9.23042969 7.01367188 9.89648438 C9 14.69055451 9 14.69055451 9 17 C7.68 17.33 6.36 17.66 5 18 C4.15875684 15.75267898 3.32685168 13.50261215 2.5 11.25 C2.26152344 10.61578125 2.02304687 9.9815625 1.77734375 9.328125 C0.55198242 5.96713393 0 3.63128413 0 0 Z " fill="#C3C3C3" transform="translate(402,539)"/>
<path d="M0 0 C5.8340605 1.94468683 9.25678673 9.27639984 11.9375 14.625 C12.288125 15.40875 12.63875 16.1925 13 17 C11.68 17.33 10.36 17.66 9 18 C7.68144905 15.75335738 6.37006028 13.50302694 5.0625 11.25 C4.68931641 10.61578125 4.31613281 9.9815625 3.93164062 9.328125 C2.14463236 6.23708368 0.75114727 3.48532332 0 0 Z " fill="#DADADA" transform="translate(305,511)"/>
<path d="M0 0 C0.66 0 1.32 0 2 0 C4.43046191 6.32837252 5.59060025 12.23784552 6 19 C5.01 19 4.02 19 3 19 C0.99134292 12.49577707 -0.38614349 6.8218683 0 0 Z " fill="#E4E4E4" transform="translate(152,382)"/>
<path d="M0 0 C0.66 0 1.32 0 2 0 C1.34 1.32 0.68 2.64 0 4 C-0.66 4 -1.32 4 -2 4 C-2.33 16.87 -2.66 29.74 -3 43 C-3.99 42.67 -4.98 42.34 -6 42 C-5.34 42 -4.68 42 -4 42 C-4.01571045 40.93563721 -4.0314209 39.87127441 -4.04760742 38.7746582 C-4.10203054 34.81444914 -4.13639493 30.85427296 -4.16479492 26.89379883 C-4.1798534 25.18182816 -4.20030455 23.46989589 -4.22631836 21.75805664 C-4.2628319 19.29303495 -4.27975562 16.82852465 -4.29296875 14.36328125 C-4.30845261 13.60163162 -4.32393646 12.83998199 -4.33988953 12.05525208 C-4.34132258 7.49938215 -3.76430106 4.65149966 -1 1 C-0.67 0.67 -0.34 0.34 0 0 Z " fill="#8A8A8A" transform="translate(494,688)"/>
<path d="M0 0 C1.96680861 1.46412552 3.92975859 2.93287727 5.88671875 4.41015625 C7.58009175 5.6840986 9.28777862 6.93900524 11 8.1875 C11.66 8.785625 12.32 9.38375 13 10 C13 10.99 13 11.98 13 13 C8.86186295 12.46823005 6.72917682 10.22067834 3.75 7.4375 C2.85796875 6.61121094 1.9659375 5.78492188 1.046875 4.93359375 C0.37140625 4.29550781 -0.3040625 3.65742187 -1 3 C-0.67 2.01 -0.34 1.02 0 0 Z " fill="#CACACA" transform="translate(340,664)"/>
<path d="M0 0 C0.85851562 0.36931641 0.85851562 0.36931641 1.734375 0.74609375 C0.35249047 3.95653257 -1.18984403 5.7954574 -3.890625 7.99609375 C-4.52226562 8.516875 -5.15390625 9.03765625 -5.8046875 9.57421875 C-6.28679687 9.9609375 -6.76890625 10.34765625 -7.265625 10.74609375 C-7.265625 10.08609375 -7.265625 9.42609375 -7.265625 8.74609375 C-8.255625 8.41609375 -9.245625 8.08609375 -10.265625 7.74609375 C-9.03163437 6.37732259 -7.77781877 5.02640209 -6.515625 3.68359375 C-5.81953125 2.92949219 -5.1234375 2.17539062 -4.40625 1.3984375 C-2.265625 -0.25390625 -2.265625 -0.25390625 0 0 Z " fill="#D9D9D9" transform="translate(343.265625,626.25390625)"/>
<path d="M0 0 C2.25 0 2.25 0 5 1 C7.05695657 3.99014453 9 7.313902 9 11 C7.68 11.33 6.36 11.66 5 12 C4.16180842 10.37750059 3.3295884 8.75191503 2.5 7.125 C2.0359375 6.22007812 1.571875 5.31515625 1.09375 4.3828125 C0 2 0 2 0 0 Z " fill="#E5E5E5" transform="translate(328,553)"/>
<path d="M0 0 C-1.3584202 3.04332765 -2.88463024 5.12309151 -5.2578125 7.453125 C-5.88300781 8.071875 -6.50820313 8.690625 -7.15234375 9.328125 C-7.80332031 9.96234375 -8.45429688 10.5965625 -9.125 11.25 C-9.78371094 11.8996875 -10.44242187 12.549375 -11.12109375 13.21875 C-12.74296643 14.81711727 -14.3693281 16.41061897 -16 18 C-16 14.06830895 -14.60580385 12.83572772 -12 10 C-11.34 10 -10.68 10 -10 10 C-9.79375 9.46375 -9.5875 8.9275 -9.375 8.375 C-7.43786251 5.02903524 -4.15282732 0 0 0 Z " fill="#323232" transform="translate(285,97)"/>
<path d="M0 0 C4.95 0.33 9.9 0.66 15 1 C13.68 1.33 12.36 1.66 11 2 C11 2.66 11 3.32 11 4 C4.73 3.67 -1.54 3.34 -8 3 C-8 2.67 -8 2.34 -8 2 C-5.36 1.67 -2.72 1.34 0 1 C0 0.67 0 0.34 0 0 Z " fill="#828282" transform="translate(509,621)"/>
<path d="M0 0 C3 1 3 1 4.1875 2.625 C5.29470524 5.86144609 5.25139764 8.60613185 5 12 C4.34 12.66 3.68 13.32 3 14 C-0.44419134 4.58997722 -0.44419134 4.58997722 0 0 Z " fill="#E9E9E9" transform="translate(350,599)"/>
<path d="M0 0 C2.39763185 2.39763185 2.34280586 3.33273498 2.625 6.625 C2.69976562 7.44226563 2.77453125 8.25953125 2.8515625 9.1015625 C2.92503906 10.04128906 2.92503906 10.04128906 3 11 C2.67 10.01 2.34 9.02 2 8 C1.34 8 0.68 8 0 8 C-0.33 9.32 -0.66 10.64 -1 12 C-1.33 8.7 -1.66 5.4 -2 2 C-1.34 2 -0.68 2 0 2 C0 1.34 0 0.68 0 0 Z " fill="#C4C4C4" transform="translate(152,374)"/>
<path d="M0 0 C0.99 0 1.98 0 3 0 C4.06775224 1.96466413 5.06553465 3.96855359 6 6 C5.67 6.66 5.34 7.32 5 8 C4.01 7.67 3.02 7.34 2 7 C1.67 7.66 1.34 8.32 1 9 C0.63877119 7.68942607 0.28619689 6.37646376 -0.0625 5.0625 C-0.35833984 3.96615234 -0.35833984 3.96615234 -0.66015625 2.84765625 C-0.77230469 2.23792969 -0.88445312 1.62820313 -1 1 C-0.67 0.67 -0.34 0.34 0 0 Z " fill="#DADADA" transform="translate(335,564)"/>
<path d="M0 0 C2.10671669 2.10671669 3.04019053 3.19440309 4 6 C3.86929301 8.72916197 3.45078239 11.29530568 3 14 C0.84622436 11.37801226 -0.40072174 9.35595828 -1 6 C-0.34 6 0.32 6 1 6 C0.67 4.02 0.34 2.04 0 0 Z " fill="#CDCDCD" transform="translate(166,422)"/>
<path d="M0 0 C0.33 0 0.66 0 1 0 C1.36923077 7.38461538 1.36923077 7.38461538 -0.5 10.5 C-0.995 10.995 -1.49 11.49 -2 12 C-3.80411967 9.24075815 -4.0127245 8.11027897 -3.625 4.75 C-3.41875 3.8425 -3.2125 2.935 -3 2 C-2.34 2.33 -1.68 2.66 -1 3 C-0.67 2.01 -0.34 1.02 0 0 Z " fill="#DEDEDE" transform="translate(355,608)"/>
<path d="M0 0 C0.66 2.31 1.32 4.62 2 7 C0.125 7.625 0.125 7.625 -2 8 C-4 6 -4 6 -4.125 3.375 C-4.08375 2.59125 -4.0425 1.8075 -4 1 C-2 0 -2 0 0 0 Z " fill="#F4F4F4" transform="translate(326,645)"/>
<path d="M0 0 C4.82360189 -0.19294408 8.49646738 0.24252386 13 2 C13 2.33 13 2.66 13 3 C11.39667209 3.08121924 9.79215974 3.13929134 8.1875 3.1875 C7.29417969 3.22230469 6.40085937 3.25710938 5.48046875 3.29296875 C2.58352485 2.95081002 1.77444972 2.24606427 0 0 Z " fill="#EDEDED" transform="translate(497,620)"/>
<path d="M0 0 C1.8125 0.1875 1.8125 0.1875 4 1 C5.8125 3.4375 5.8125 3.4375 7 6 C6.67 6.66 6.34 7.32 6 8 C3.5625 6.8125 3.5625 6.8125 1 5 C0.1875 2.3125 0.1875 2.3125 0 0 Z " fill="#E6E6E6" transform="translate(337,571)"/>
<path d="M0 0 C0.66 0 1.32 0 2 0 C3.60725635 3.21451269 3.05748185 6.43612536 3 10 C2.34 10 1.68 10 1 10 C-0.60725635 6.78548731 -0.05748185 3.56387464 0 0 Z " fill="#F1F1F1" transform="translate(149,366)"/>
<path d="M0 0 C2.15377564 2.62198774 3.40072174 4.64404172 4 8 C2.35 7.67 0.7 7.34 -1 7 C-1.625 5.1875 -1.625 5.1875 -2 3 C-1.34 2.01 -0.68 1.02 0 0 Z " fill="#D9D9D9" transform="translate(328,546)"/>
<path d="M0 0 C0.66 0 1.32 0 2 0 C1.690625 0.5775 1.38125 1.155 1.0625 1.75 C-0.08633307 3.90435397 -0.08633307 3.90435397 -0.3125 6.0625 C-1.3403913 8.95928458 -3.35561481 9.64390503 -6 11 C-4.54997977 6.89160936 -2.6020866 3.49655387 0 0 Z " fill="#C7C7C7" transform="translate(383,173)"/>
<path d="M0 0 C0.66 0.33 1.32 0.66 2 1 C-0.64 3.64 -3.28 6.28 -6 9 C-6.33 8.34 -6.66 7.68 -7 7 C-4.78071806 4.09197539 -3.07030857 2.04687238 0 0 Z " fill="#C1C1C1" transform="translate(568,683)"/>
<path d="M0 0 C0.66 0 1.32 0 2 0 C2.66 2.64 3.32 5.28 4 8 C3.01 8 2.02 8 1 8 C0.67 5.36 0.34 2.72 0 0 Z " fill="#F9F9F9" transform="translate(154,393)"/>
<path d="M0 0 C0.66 0.66 1.32 1.32 2 2 C1.04882866 3.1725131 0.08882991 4.33787015 -0.875 5.5 C-1.40867187 6.1496875 -1.94234375 6.799375 -2.4921875 7.46875 C-2.98976563 7.9740625 -3.48734375 8.479375 -4 9 C-4.66 9 -5.32 9 -6 9 C-4.47291037 5.56404834 -2.40072955 2.88087546 0 0 Z " fill="#2B2B2B" transform="translate(401,375)"/>
<path d="M0 0 C1.32 0 2.64 0 4 0 C4.33 1.32 4.66 2.64 5 4 C4.01 4.66 3.02 5.32 2 6 C1.34 4.02 0.68 2.04 0 0 Z " fill="#E4E4E4" transform="translate(315,528)"/>
<path d="M0 0 C0.66 0.33 1.32 0.66 2 1 C0.02 3.31 -1.96 5.62 -4 8 C-5.32 7.34 -6.64 6.68 -8 6 C-5.36 4.02 -2.72 2.04 0 0 Z " fill="#3E3E3E" transform="translate(629,500)"/>
<path d="M0 0 C0.99 0.33 1.98 0.66 3 1 C2.67 2.32 2.34 3.64 2 5 C1.01 5 0.02 5 -1 5 C-0.67 3.35 -0.34 1.7 0 0 Z " fill="#D0D0D0" transform="translate(349,595)"/>
</svg>
